GIL08_fast1_RRA_states
nRows=7
nColumns=47

# SIMM Motion File Header:
name GIL08_fast1_RRA_states
datacolumns 47
datarows 7
otherdata 1
range 0.53667000000000031000 0.53967000000000032000
endheader
time	pelvis_tx	pelvis_ty	pelvis_tz	pelvis_tilt	pelvis_list	pelvis_rotation	hip_flexion_r	hip_adduction_r	hip_rotation_r	knee_angle_r	ankle_angle_r	subtalar_angle_r	mtp_angle_r	hip_flexion_l	hip_adduction_l	hip_rotation_l	knee_angle_l	ankle_angle_l	subtalar_angle_l	mtp_angle_l	lumbar_extension	lumbar_bending	lumbar_rotation	pelvis_tx_u	pelvis_ty_u	pelvis_tz_u	pelvis_tilt_u	pelvis_list_u	pelvis_rotation_u	hip_flexion_r_u	hip_adduction_r_u	hip_rotation_r_u	knee_angle_r_u	ankle_angle_r_u	subtalar_angle_r_u	mtp_angle_r_u	hip_flexion_l_u	hip_adduction_l_u	hip_rotation_l_u	knee_angle_l_u	ankle_angle_l_u	subtalar_angle_l_u	mtp_angle_l_u	lumbar_extension_u	lumbar_bending_u	lumbar_rotation_u
      0.53667000000000031000	      1.19686247994745990000	      0.92769837320876491000	     -0.24751390424394842000	      2.81858689131985150000	     -2.08301335863786230000	      8.09569280605973240000	     26.42123805505628600000	     -1.68181300903175760000	     -0.90833047476544648000	    -23.43473485024364000000	     -6.11932087858140770000	      0.00000000000000526148	     -0.00000000000001780994	    -24.58630643586626600000	     -6.36265440888438240000	      3.67487888240273230000	    -20.45189770791761700000	      0.14126821339722334000	      0.00000000000001154446	     -0.00000000000059872321	     -8.26625242339575020000	      3.43649049232507540000	     -8.54817470329262360000	      1.85441760720654100000	      0.06788920322444100300	      0.18689525299982132000	      6.44546985219882360000	    -51.81522868223930100000	     -8.83569916344123380000	    -11.79201117814181500000	     85.00162799283802400000	    -38.22948823305340200000	   -193.89196251455201000000	     19.76325678171373900000	     -0.00000000000005638253	     -0.00000000000020335991	     46.80177897825504400000	    -76.54928066795727700000	    -85.16257250096131800000	   -202.66158914107561000000	   -410.94312333495600000000	      0.00000000000045233872	     -0.00000000000214673704	     12.88636876959360900000	     58.24190930362999600000	     16.18235931336649000000
      0.53717000000000026000	      1.19778951674753010000	      0.92773289583017782000	     -0.24742041172238080000	      2.82179279226301550000	     -2.10898961544768460000	      8.09130134562696670000	     26.41518333477819500000	     -1.63924334336822760000	     -0.92750333570418919000	    -23.53151350023237100000	     -6.10859862111571330000	      0.00000000000000523309	     -0.00000000000001790631	    -24.56254023661098200000	     -6.40102720265633970000	      3.63223910192108070000	    -20.55350760603521100000	     -0.06516630568228246000	      0.00000000000001176320	     -0.00000000000059977562	     -8.25982118793464260000	      3.46568077496191320000	     -8.54012875963032410000	      1.85372468656994440000	      0.07019919453006330500	      0.18706945498655414000	      6.37800955257981710000	    -52.08928380806029400000	     -8.72895577283017940000	    -12.42909626733340600000	     85.27553710521731000000	    -38.46074491756785100000	   -193.21595796829902000000	     23.12335215287786400000	     -0.00000000000007420264	     -0.00000000000017362373	     48.26373479374512200000	    -76.94169319799985400000	    -85.39650850344047200000	   -203.77876817470622000000	   -414.78792969193563000000	      0.00000000000041971627	     -0.00000000000207071852	     12.83843786844006700000	     58.51967688367435000000	     15.99867737318258200000
      0.53767000000000031000	      1.19871619975606470000	      0.92776857029514193000	     -0.24732684017025364000	      2.82496478672244590000	     -2.13510214312214770000	      8.08696505504304140000	     26.40880672617893400000	     -1.59653894748529310000	     -0.94679003838013664000	    -23.62794420707304600000	     -6.09619898373564250000	      0.00000000000000520041	     -0.00000000000001799288	    -24.53804203801190600000	     -6.43959592886483810000	      3.58948247533398980000	    -20.65567708410732500000	     -0.27351324154356060000	      0.00000000000001196791	     -0.00000000000060080723	     -8.25341412384722690000	      3.49501064250827160000	     -8.53217877906103620000	      1.85300249932678170000	      0.07249653449227704000	      0.18721136771798383000	      6.30986480055089420000	    -52.36034237527422900000	     -8.61498350526139410000	    -13.07957764154656900000	     85.54059188174251500000	    -38.68491485409521100000	   -192.50034184188911000000	     26.47469472934125200000	     -0.00000000000004678881	     -0.00000000000018733522	     49.72966671111238000000	    -77.33306523419136600000	    -85.62983366342257300000	   -204.89959501572250000000	   -418.59385742607344000000	      0.00000000000041022395	     -0.00000000000207292011	     12.78967676195477000000	     58.80028379619403700000	     15.79847633204950900000
      0.53817000000000026000	      1.19964251437160940000	      0.92780539020640773000	     -0.24723320572560181000	      2.82810254641415560000	     -2.16134943878019350000	      8.08268752446018720000	     26.40210154167932900000	     -1.55370423034915020000	     -0.96618702262987388000	    -23.72400730084043700000	     -6.08212562370150240000	      0.00000000000000517463	     -0.00000000000001808500	    -24.51280994718338800000	     -6.47836004644930250000	      3.54660939927037240000	    -20.75840778296646900000	     -0.48375340711353937000	      0.00000000000001217021	     -0.00000000000060184475	     -8.24703164979565170000	      3.52448151051674640000	     -8.52433298661322600000	      1.85225106177103150000	      0.07478092220884637000	      0.18732105369781529000	      6.24105647053441450000	    -52.62828622587024800000	     -8.49403715657306610000	    -13.74335209054061300000	     85.79677268749159700000	    -38.90171833051352500000	   -191.74547387237561000000	     29.81584386556810200000	     -0.00000000000006207830	     -0.00000000000016286450	     51.19933255131562100000	    -77.72310766016627800000	    -85.86237066499512600000	   -206.02391351001455000000	   -422.35921735292914000000	      0.00000000000038463319	     -0.00000000000205582177	     12.74008371050440200000	     59.08360093220819900000	     15.58205547079350600000
      0.53867000000000032000	      1.20056844594678960000	      0.92784334901038212000	     -0.24713952448283083000	      2.83120573755098630000	     -2.18772988976047160000	      8.07847213943576570000	     26.39506116927910600000	     -1.51074365963228390000	     -0.98569048916768465000	    -23.81968317150671400000	     -6.06638510493881980000	      0.00000000000000513982	     -0.00000000000001816082	    -24.48684212583657400000	     -6.51731876408673290000	      3.50362027458616910000	    -20.86170156021551500000	     -0.69586528457400842000	      0.00000000000001236619	     -0.00000000000060289262	     -8.24067418060208470000	      3.55409467363221410000	     -8.51659937865366600000	      1.85147039916074440000	      0.07705206576365031300	      0.18739854065798783000	      6.17161473021775550000	    -52.89299195449258700000	     -8.36636125262895720000	    -14.42035593486471300000	     86.04404355217022300000	    -39.11091754329431300000	   -190.95154462596724000000	     33.14519215285544400000	     -0.00000000000009776265	     -0.00000000000013240564	     52.67247389034288600000	    -78.11151424387476500000	    -86.09388605935330900000	   -207.15160745302200000000	   -426.08150186796348000000	      0.00000000000039750961	     -0.00000000000211565080	     12.68964758616375300000	     59.36949875490942200000	     15.34970408494033100000
      0.53917000000000026000	      1.20149397991062410000	      0.92788244001621434000	     -0.24704581253652139000	      2.83427405887259140000	     -2.21424187114821440000	      8.07432224149458650000	     26.38767900147022500000	     -1.46766167446074250000	     -1.00529662704803990000	    -23.91495240036614700000	     -6.04898262971219220000	      0.00000000000000508870	     -0.00000000000001822872	    -24.46013693366729700000	     -6.55647123879042050000	      3.46051571465675250000	    -20.96555992538992500000	     -0.90982744992847953000	      0.00000000000001255356	     -0.00000000000060393332	     -8.23434214224602630000	      3.58385141645738830000	     -8.50898588467181760000	      1.85066057690540870000	      0.07930967095956667500	      0.18744391717158201000	      6.10155966234145270000	    -53.15433967230384800000	     -8.23221564980964080000	    -15.11046570918414700000	     86.28238762652740900000	    -39.31223907046162200000	   -190.11894036360587000000	     36.46134018572070800000	     -0.00000000000010194935	     -0.00000000000013840396	     54.14885062286779800000	    -78.49798840529388100000	    -86.32419079351218700000	   -208.28251134060696000000	   -429.75900132911045000000	      0.00000000000037011669	     -0.00000000000208275714	     12.63837104097254600000	     59.65783930616756700000	     15.10173999399211900000
      0.53967000000000032000	      1.20241910167582010000	      0.92792265637795512000	     -0.24695208590793183000	      2.83730719974989310000	     -2.24088364892533990000	      8.07024096012888310000	     26.37994853348476100000	     -1.42446276521197770000	     -1.02500137614598330000	    -24.00979570280508200000	     -6.02992623223725580000	      0.00000000000000502841	     -0.00000000000001828729	    -24.43269277820762000000	     -6.59581637814982450000	      3.41729632553263410000	    -21.06998458591313300000	     -1.12561640914974490000	      0.00000000000001273606	     -0.00000000000060496590	     -8.22803595068973510000	      3.61375289695269550000	     -8.50150018916952100000	      1.84982166866082350000	      0.08155345356387193300	      0.18745723881662815000	      6.03092024947670600000	    -53.41220376742759200000	     -8.09185180970406570000	    -15.81359644822778200000	     86.51177157754493400000	    -39.50544896694654500000	   -189.24787717017321000000	     39.76267142610357300000	     -0.00000000000013472093	     -0.00000000000010642460	     55.62820716494088200000	    -78.88221527822548800000	    -86.55304311594888100000	   -209.41650137194839000000	   -433.38921149300529000000	      0.00000000000037607189	     -0.00000000000208145283	     12.58624744791055300000	     59.94848347966797800000	     14.83847280584746800000
